<svg xmlns="http://www.w3.org/2000/svg" width="185.989" height="62.065" viewBox="0 0 185.989 62.065"><path d="M85.94,0,101.4,26.8h30.941Z" transform="translate(53.645)" fill="#fff"/><path d="M84.85.63V54.213l4.353-7.52,11.11-19.279Z" transform="translate(52.965 0.393)" fill="#fff"/><path d="M100.313,27.413,84.85.63h0Z" transform="translate(52.965 0.393)" fill="#fff"/><path d="M132.344,17.75H101.4L85.94,44.55Z" transform="translate(53.645 11.08)" fill="#fff"/><path d="M81.915,15a5.441,5.441,0,0,0-.52-2.014,7.146,7.146,0,0,0-2.306-2.518,8.592,8.592,0,0,0-3.411-1.494,11.045,11.045,0,0,0-3.443-.162,5.522,5.522,0,0,0-2.55.926,3.752,3.752,0,0,0-1.624,2.453A3.638,3.638,0,0,0,68.922,15a6.692,6.692,0,0,0,3.021,1.624,49.764,49.764,0,0,0,4.97,1.234c1.982.439,4,.877,5.945,1.364a28.911,28.911,0,0,1,5.295,1.884,18.4,18.4,0,0,1,5.6,4.077,13.221,13.221,0,0,1,2.7,4.19,14.52,14.52,0,0,1,.893,4.873A16.047,16.047,0,0,1,95.721,42a15.4,15.4,0,0,1-5.311,5.6,23.5,23.5,0,0,1-7.488,3.248,36.334,36.334,0,0,1-9,.893,31.64,31.64,0,0,1-10.46-1.511A19.02,19.02,0,0,1,56.5,46.074,13.855,13.855,0,0,1,53.248,41.2a18.824,18.824,0,0,1-1.234-4.71c0-.682-.1-1.364-.114-2.111H66.079a9.518,9.518,0,0,0,.6,2.274,9.177,9.177,0,0,0,3.752,4.4,10.086,10.086,0,0,0,7.1,1.2,6.74,6.74,0,0,0,4.548-2.534,5.3,5.3,0,0,0,.65-3.476A5.685,5.685,0,0,0,81.1,32.9,8.706,8.706,0,0,0,77.5,31.034c-1.884-.568-3.768-.926-5.62-1.332a51.568,51.568,0,0,1-8.787-2.68,16.242,16.242,0,0,1-5.2-3.248,12.88,12.88,0,0,1-3.33-5.474,13.172,13.172,0,0,1,0-7.228,12.311,12.311,0,0,1,3-5.344A17.671,17.671,0,0,1,62.88,1.993,21.992,21.992,0,0,1,69.523.369,46.485,46.485,0,0,1,79.041.158a22.528,22.528,0,0,1,8.121,2.079,17.314,17.314,0,0,1,3.395,2.323,15.982,15.982,0,0,1,3.395,3.979A11.662,11.662,0,0,1,95.429,12.6a10.8,10.8,0,0,1,.13,2.4Z" transform="translate(32.397 0.005)" fill="#fff"/><path d="M0,23.048V0H38.266V7.065h-19.6V17.542H31.38v5.506Z" fill="#fff"/><path d="M28.23,23.048V0H66.513V7.065h-19.6V17.542h12.7v5.506Z" transform="translate(17.622)" fill="#fff"/><path d="M38.266,42.043H0V15.39H31.217V20.9H18.581v14.1H38.266Z" transform="translate(0 9.607)" fill="#fff"/><path d="M46.945,42.043V20.9H59.581V15.39H28.38V42.043Z" transform="translate(17.715 9.607)" fill="#fff"/><path d="M0,33.77H4.97v1.218H1.446V36.6H4.532v1.2H1.446v2.924H0Z" transform="translate(0 21.08)" fill="#fff"/><path d="M6.415,33.77H8.039l2.5,6.952H8.916l-.471-1.429H5.928l-.471,1.429H3.93Zm-.1,4.32H8.1l-.812-2.745Z" transform="translate(2.453 21.08)" fill="#fff"/><path d="M10.247,34.544a2.907,2.907,0,0,1,2.144-.861,2.924,2.924,0,0,1,2.55,1.153,2.55,2.55,0,0,1,.471,1.3H13.95a1.787,1.787,0,0,0-.357-.747,1.364,1.364,0,0,0-1.137-.455,1.446,1.446,0,0,0-1.234.633,3.248,3.248,0,0,0-.455,1.884,2.7,2.7,0,0,0,.487,1.754,1.462,1.462,0,0,0,1.2.585,1.4,1.4,0,0,0,1.137-.5,2.241,2.241,0,0,0,.357-.812h1.4a3.1,3.1,0,0,1-.958,1.852,2.777,2.777,0,0,1-1.965.715,2.989,2.989,0,0,1-2.339-.958,4.613,4.613,0,0,1,.114-5.474" transform="translate(5.768 21.02)" fill="#fff"/><rect width="1.446" height="6.952" transform="translate(23.714 54.85)" fill="#fff"/><path d="M17.25,33.77h1.462v5.7h3.476v1.251H17.25Z" transform="translate(10.768 21.08)" fill="#fff"/><rect width="1.446" height="6.952" transform="translate(35.31 54.85)" fill="#fff"/><path d="M29.666,33.77v1.218H27.587v5.733H26.125V34.988h-2.1V33.77Z" transform="translate(15 21.08)" fill="#fff"/><rect width="1.446" height="6.952" transform="translate(46.907 54.85)" fill="#fff"/><path d="M36.65,34.988H32.979v1.478h3.378v1.218H32.979v1.787h3.849v1.251H31.55V33.77h5.1Z" transform="translate(19.694 21.08)" fill="#fff"/><path d="M37.56,38.667a1.527,1.527,0,0,0,.276.715,1.624,1.624,0,0,0,1.234.422,2.566,2.566,0,0,0,.861-.114.812.812,0,0,0,.617-.812.585.585,0,0,0-.309-.52,3.135,3.135,0,0,0-.975-.341l-.747-.162a5.181,5.181,0,0,1-1.527-.52,1.624,1.624,0,0,1-.7-1.511,2.014,2.014,0,0,1,.682-1.624,3,3,0,0,1,2.111-.552,3.151,3.151,0,0,1,1.9.585,2.063,2.063,0,0,1,.812,1.624H40.4a.991.991,0,0,0-.552-.893,1.982,1.982,0,0,0-.861-.179,1.624,1.624,0,0,0-.926.227.747.747,0,0,0-.341.633.6.6,0,0,0,.341.568,3.557,3.557,0,0,0,.926.276l1.218.292a3.249,3.249,0,0,1,1.2.5,1.738,1.738,0,0,1,.617,1.429A2,2,0,0,1,41.3,40.34a3.135,3.135,0,0,1-2.1.633,3.476,3.476,0,0,1-2.16-.617,2.079,2.079,0,0,1-.78-1.705Z" transform="translate(22.633 20.991)" fill="#fff"/><path d="M45.061,38.687a1.527,1.527,0,0,0,.276.715,1.624,1.624,0,0,0,1.234.422,2.4,2.4,0,0,0,.845-.114.812.812,0,0,0,.633-.812.585.585,0,0,0-.309-.52,3.249,3.249,0,0,0-.958-.341l-.763-.162a5.181,5.181,0,0,1-1.527-.52,1.624,1.624,0,0,1-.7-1.511,2.014,2.014,0,0,1,.682-1.624,2.972,2.972,0,0,1,2.03-.617,3.151,3.151,0,0,1,1.9.585,2.063,2.063,0,0,1,.812,1.624h-1.4a.991.991,0,0,0-.552-.893,2.014,2.014,0,0,0-.877-.179,1.624,1.624,0,0,0-.91.227.747.747,0,0,0-.341.633.6.6,0,0,0,.341.568,3.378,3.378,0,0,0,.91.276l1.234.292a3.249,3.249,0,0,1,1.2.5,1.738,1.738,0,0,1,.617,1.429,2,2,0,0,1-.731,1.624,3.135,3.135,0,0,1-2.1.633,3.476,3.476,0,0,1-2.16-.617,2.079,2.079,0,0,1-.78-1.705Z" transform="translate(27.265 20.971)" fill="#fff"/><path d="M53.91,34.988H50.223v1.478H53.6v1.218H50.223v1.787h3.849v1.251H48.81V33.77h5.1Z" transform="translate(30.468 21.08)" fill="#fff"/><path d="M58.118,33.95a1.462,1.462,0,0,1,.65.487,2.079,2.079,0,0,1,.357.585,2.03,2.03,0,0,1,.13.731,2.193,2.193,0,0,1-.26.975,1.381,1.381,0,0,1-.828.666,1.332,1.332,0,0,1,.682.552,2.144,2.144,0,0,1,.211,1.072v.471a3.1,3.1,0,0,0,0,.65.536.536,0,0,0,.276.39v.179H57.712a3.251,3.251,0,0,1-.1-.374,3.591,3.591,0,0,1,0-.6v-.65a1.348,1.348,0,0,0-.244-.877,1.169,1.169,0,0,0-.828-.227H55.129v2.729H53.7V33.771h3.33a2.777,2.777,0,0,1,1.1.179m-3,1.023v1.868h1.624a1.624,1.624,0,0,0,.7-.114.78.78,0,0,0,.422-.78.877.877,0,0,0-.406-.861,1.445,1.445,0,0,0-.666-.114Z" transform="translate(33.52 21.079)" fill="#fff"/><path d="M63.067,33.77h1.511l-2.371,6.952H60.825L58.47,33.77h1.559l1.511,5.279Z" transform="translate(36.498 21.08)" fill="#fff"/><rect width="1.446" height="6.952" transform="translate(103.316 54.85)" fill="#fff"/><path d="M67.048,34.539a3.248,3.248,0,0,1,4.678.292,2.55,2.55,0,0,1,.471,1.3H70.832a2,2,0,0,0-.357-.747,1.429,1.429,0,0,0-1.153-.455,1.4,1.4,0,0,0-1.218.633,3.1,3.1,0,0,0-.52,1.884,2.794,2.794,0,0,0,.455,1.624,1.494,1.494,0,0,0,1.2.585,1.381,1.381,0,0,0,1.137-.5,2.225,2.225,0,0,0,.374-.812H72.2a3.248,3.248,0,0,1-.958,1.852,2.81,2.81,0,0,1-1.965.715,2.989,2.989,0,0,1-2.339-.958,3.914,3.914,0,0,1-.861-2.664,3.833,3.833,0,0,1,.975-2.81" transform="translate(41.239 21.025)" fill="#fff"/><path d="M76.61,34.988H72.923v1.478H76.3v1.218H72.923v1.787h3.849v1.251H71.51V33.77h5.1Z" transform="translate(44.638 21.08)" fill="#fff"/><path d="M77.531,38.686a1.527,1.527,0,0,0,.26.715,1.624,1.624,0,0,0,1.251.422,2.469,2.469,0,0,0,.845-.114.812.812,0,0,0,.633-.812.585.585,0,0,0-.309-.52,3.249,3.249,0,0,0-.975-.341l-.747-.162a5,5,0,0,1-1.527-.52,1.624,1.624,0,0,1-.7-1.511,2.014,2.014,0,0,1,.682-1.624A2.956,2.956,0,0,1,78.96,33.6a3.07,3.07,0,0,1,1.9.585,2.03,2.03,0,0,1,.828,1.624h-1.4a.991.991,0,0,0-.552-.893,2.063,2.063,0,0,0-.877-.179,1.624,1.624,0,0,0-.91.227.731.731,0,0,0-.357.633.6.6,0,0,0,.341.568,3.8,3.8,0,0,0,.926.276l1.218.292a3.1,3.1,0,0,1,1.2.5,1.705,1.705,0,0,1,.633,1.429,1.965,1.965,0,0,1-.747,1.624,3.086,3.086,0,0,1-2.079.633,3.443,3.443,0,0,1-2.16-.617,2.079,2.079,0,0,1-.78-1.705Z" transform="translate(47.533 20.971)" fill="#fff"/></svg>